<?xml version="1.0" encoding="iso-8859-1"?>
<!-- Generator: Adobe Illustrator 19.0.0, SVG Export Plug-In . SVG Version: 6.00 Build 0)  -->
<svg version="1.1" id="Capa_1" xmlns="http://www.w3.org/2000/svg" xmlns:xlink="http://www.w3.org/1999/xlink" x="0px" y="0px"
	 viewBox="0 0 491.52 491.52" style="enable-background:new 0 0 491.52 491.52;" xml:space="preserve">
<circle style="fill:#45B39C;" cx="245.76" cy="245.76" r="245.76"/>
<path style="opacity:0.1;enable-background:new    ;" d="M383.181,112.985c-2.611-3.072-6.451-5.017-10.803-5.017H362.24
	c0,0-10.189-4.507-12.698-2.459c-2.918,2.408-2.918,12.75,0,15.156l26.778,26.778v41.011c0,1.793-0.102,3.584-0.256,5.375
	l-87.808-87.807l-0.512-0.513c-2.509-2.047-12.698,2.459-12.698,2.459h-10.035c-7.834,0-14.182,6.349-14.182,14.181v67.995
	c0,27.391,16.384,50.995,39.782,61.644l2.406-4.199l-2.099,3.84c-0.461,0.82-0.102,1.895,0.768,2.254
	c6.195,2.662,12.595,4.352,19.098,5.12c0.87,0.102,1.485,0.819,1.485,1.689v12.34h1.331v83.457c0,6.501-3.123,12.287-7.936,15.922
	L176.538,243.084c-7.475-8.602-18.483-14.08-30.822-14.08c-22.477,0-40.755,18.227-40.755,40.755
	c0,11.571,4.813,22.017,12.544,29.44l23.091,23.091v30.464c0,7.834,2.662,15.054,7.168,20.736l0.102,0.103
	c1.638,2.151,3.533,4.045,5.683,5.684l111.425,111.425C391.713,480.889,491.52,375.016,491.52,245.76
	c0-8.711-0.469-17.311-1.353-25.789L383.334,113.139L383.181,112.985z"/>
<path style="fill:#64798A;" d="M293.537,386.56c-16.7,0-30.285-13.585-30.285-30.285c0-15.395-12.345-27.74-27.52-27.74
	c-15.175,0-27.52,12.345-27.52,27.52c0,16.82-13.685,30.505-30.505,30.505h-3.295c-18.635,0-33.8-15.165-33.8-33.8V300.3h10.24
	v52.46c0,12.99,10.57,23.56,23.56,23.56h3.295c11.175,0,20.265-9.09,20.265-20.265c0-20.82,16.94-37.76,37.76-37.76
	s37.76,16.94,37.76,37.76c0,11.275,8.99,20.265,20.045,20.265c11.05,0,20.04-8.99,20.04-20.045v-88.58h10.24v88.58
	C323.816,372.975,310.232,386.56,293.537,386.56z"/>
<path style="fill:#D5D6DB;" d="M318.696,232.459c-18.355,0-36.71-4-54.94-11.995l2.06-4.69c35.085,15.385,70.67,15.395,105.765,0
	l2.06,4.69C355.411,228.459,337.056,232.459,318.696,232.459z"/>
<g>
	<path style="fill:#EBF0F3;" d="M261.07,190.159v-67.995c0-2.179,1.766-3.945,3.945-3.945h10.61v-10.24h-10.61
		c-7.834,0-14.185,6.35-14.185,14.185v67.995c0,27.398,16.359,50.957,39.788,61.649l5.014-8.895
		C275.317,233.994,261.07,213.729,261.07,190.159z"/>
	<path style="fill:#EBF0F3;" d="M372.375,107.979h-10.61v10.24h10.61c2.179,0,3.945,1.766,3.945,3.945v66.31
		c0,23.753-13.963,45.11-34.592,54.385l5.045,8.949c23.429-10.692,39.788-34.251,39.788-61.649v-67.995
		C386.56,114.329,380.209,107.979,372.375,107.979z"/>
</g>
<g>
	<path style="fill:#3A556A;" d="M346.459,251.415l-4.576-8.462c-0.389-0.716-1.249-1.001-2.001-0.685
		c-5.109,2.144-10.403,3.484-15.75,3.986c-1.795,0.17-3.575,0.25-5.34,0.25c-7.347,0-14.519-1.413-21.335-4.205
		c-0.749-0.306-1.598-0.02-1.983,0.693l-4.545,8.425c-0.452,0.834-0.088,1.902,0.784,2.275c6.187,2.641,12.59,4.355,19.065,5.097
		c0.865,0.099,1.515,0.809,1.515,1.68v12.345h12.805v-12.345c0-0.872,0.65-1.581,1.516-1.68c6.471-0.737,12.874-2.455,19.061-5.096
		C346.546,253.319,346.91,252.249,346.459,251.415z"/>
	<path style="fill:#3A556A;" d="M287.724,120.647c-2.492,2.051-12.668-2.487-12.668-2.487v-10.182c0,0,10.176-4.537,12.668-2.487
		C290.649,107.899,290.649,118.24,287.724,120.647z"/>
	<path style="fill:#3A556A;" d="M349.562,105.492c2.492-2.051,12.668,2.487,12.668,2.487v10.182c0,0-10.176,4.537-12.668,2.487
		C346.636,118.24,346.636,107.899,349.562,105.492z"/>
</g>
<circle style="fill:#D5D6DB;" cx="145.736" cy="269.768" r="40.776"/>
<circle style="fill:#EBF0F3;" cx="145.736" cy="269.768" r="37.309"/>
<circle style="fill:#D5D6DB;" cx="145.736" cy="269.768" r="17.961"/>
<circle style="fill:#EBF0F3;" cx="145.736" cy="269.768" r="15.601"/>
<circle style="fill:#64798A;" cx="145.736" cy="269.768" r="3.046"/>
<g>
</g>
<g>
</g>
<g>
</g>
<g>
</g>
<g>
</g>
<g>
</g>
<g>
</g>
<g>
</g>
<g>
</g>
<g>
</g>
<g>
</g>
<g>
</g>
<g>
</g>
<g>
</g>
<g>
</g>
</svg>
